<?xml version="1.0" encoding="UTF-8"?><svg xmlns="http://www.w3.org/2000/svg" xmlns:xlink="http://www.w3.org/1999/xlink" fill-opacity="1" color-rendering="auto" color-interpolation="auto" stroke="black" text-rendering="auto" stroke-linecap="square" width="482" stroke-miterlimit="10" stroke-opacity="1" shape-rendering="auto" fill="black" stroke-dasharray="none" font-weight="normal" stroke-width="1" height="632" font-family="'Dialog'" font-style="normal" stroke-linejoin="miter" font-size="12" stroke-dashoffset="0" image-rendering="auto">
  <!--Generated by ySVG-->
  <defs id="genericDefs"/>
  <g>
    <defs id="defs1">
      <clipPath clipPathUnits="userSpaceOnUse" id="clipPath1">
        <path d="M0 0 L482 0 L482 632 L0 632 L0 0 Z"/>
      </clipPath>
      <clipPath clipPathUnits="userSpaceOnUse" id="clipPath2">
        <path d="M-10 -13 L492 -13 L492 645.2241 L-10 645.2241 L-10 -13 Z"/>
      </clipPath>
    </defs>
    <g fill="white" transform="scale(0.9602,0.9602) translate(10,13)" stroke="white">
      <rect x="-10" y="-13" clip-path="url(#clipPath2)" width="502" height="659" stroke="none"/>
    </g>
    <g id="y.node.0">
      <g fill="rgb(204,204,204)" transform="matrix(0.9602,0,0,0.9602,9.6016,12.4821)" stroke="rgb(204,204,204)">
        <rect width="481.0833" x="0" height="632" y="0" stroke="none"/>
      </g>
      <g id="bla">
        <g fill="rgb(64,64,64)" transform="matrix(0.9602,0,0,0.9602,9.6016,12.4821)" stroke="rgb(64,64,64)">
          <rect width="481.0833" x="0" height="22.625" y="0" stroke="none"/>
        </g>
        <g fill="white" font-size="16" font-family="sans-serif" transform="matrix(0.9602,0,0,0.9602,9.6016,12.4821)" stroke="white">
          <text xml:space="preserve" x="447.0833" y="16.8516" stroke="none">plus</text>
        </g>
      </g>
      <g fill="white" transform="matrix(0.9602,0,0,0.9602,9.6016,12.4821)" stroke="white">
        <rect width="1" x="0" height="632" y="0" stroke="none"/>
        <rect width="479.0833" x="1" height="1" y="0" stroke="none"/>
        <rect x="1" y="631" fill="rgb(142,142,142)" width="480.0833" height="1" stroke="none"/>
        <rect x="480.0833" y="0" fill="rgb(142,142,142)" width="1" height="631" stroke="none"/>
      </g>
    </g>
    <g id="y.node.3">
      <g fill="rgb(222,239,234)" transform="matrix(0.9602,0,0,0.9602,9.6016,12.4821)" stroke="rgb(222,239,234)">
        <rect width="92" x="146.5" height="83" y="534" stroke="none"/>
      </g>
      <g id="bla">
        <g fill="rgb(64,64,64)" transform="matrix(0.9602,0,0,0.9602,9.6016,12.4821)" stroke="rgb(64,64,64)">
          <rect width="111" x="137" height="22.625" y="534" stroke="none"/>
        </g>
        <g fill="white" font-size="16" font-family="sans-serif" transform="matrix(0.9602,0,0,0.9602,9.6016,12.4821)" stroke="white">
          <text xml:space="preserve" x="139" y="550.8516" stroke="none">End Block  49</text>
        </g>
      </g>
      <g fill="white" transform="matrix(0.9602,0,0,0.9602,9.6016,12.4821)" stroke="white">
        <rect width="1" x="146.5" height="83" y="534" stroke="none"/>
        <rect width="90" x="147.5" height="1" y="534" stroke="none"/>
        <rect x="147.5" y="616" fill="rgb(155,167,163)" width="91" height="1" stroke="none"/>
        <rect x="237.5" y="534" fill="rgb(155,167,163)" width="1" height="82" stroke="none"/>
      </g>
    </g>
    <g id="y.node.12">
      <g fill="rgb(255,153,255)" transform="matrix(0.9602,0,0,0.9602,9.6016,12.4821)" stroke="rgb(255,153,255)">
        <rect width="62" x="161.5" height="30" y="572" stroke="none"/>
      </g>
      <g id="bla">
        <g font-family="sans-serif" transform="matrix(0.9602,0,0,0.9602,9.6016,12.4821)">
          <text xml:space="preserve" x="168.5" y="591.1543" stroke="none">End  50</text>
        </g>
      </g>
      <g stroke-miterlimit="1.45" transform="matrix(0.9602,0,0,0.9602,9.6016,12.4821)" stroke-linecap="butt">
        <rect fill="none" width="62" x="161.5" height="30" y="572"/>
      </g>
    </g>
    <g id="y.node.1">
      <g fill="rgb(222,239,234)" transform="matrix(0.9602,0,0,0.9602,9.6016,12.4821)" stroke="rgb(222,239,234)">
        <rect width="451.0833" x="15" height="223" y="38" stroke="none"/>
      </g>
      <g id="bla">
        <g fill="rgb(64,64,64)" transform="matrix(0.9602,0,0,0.9602,9.6016,12.4821)" stroke="rgb(64,64,64)">
          <rect width="451.0833" x="15" height="22.625" y="38" stroke="none"/>
        </g>
        <g fill="white" font-size="16" font-family="sans-serif" transform="matrix(0.9602,0,0,0.9602,9.6016,12.4821)" stroke="white">
          <text xml:space="preserve" x="349.0833" y="54.8516" stroke="none">Start Block  51</text>
        </g>
      </g>
      <g fill="white" transform="matrix(0.9602,0,0,0.9602,9.6016,12.4821)" stroke="white">
        <rect width="1" x="15" height="223" y="38" stroke="none"/>
        <rect width="449.0833" x="16" height="1" y="38" stroke="none"/>
        <rect x="16" y="260" fill="rgb(155,167,163)" width="450.0833" height="1" stroke="none"/>
        <rect x="465.0833" y="38" fill="rgb(155,167,163)" width="1" height="222" stroke="none"/>
      </g>
    </g>
    <g id="y.node.6">
      <g fill="rgb(153,153,255)" transform="matrix(0.9602,0,0,0.9602,9.6016,12.4821)" stroke="rgb(153,153,255)">
        <rect width="86" x="30" height="30" y="146" stroke="none"/>
      </g>
      <g id="bla">
        <g font-family="sans-serif" transform="matrix(0.9602,0,0,0.9602,9.6016,12.4821)">
          <text xml:space="preserve" x="37" y="165.1543" stroke="none">Proj M M 57</text>
        </g>
      </g>
      <g stroke-miterlimit="1.45" transform="matrix(0.9602,0,0,0.9602,9.6016,12.4821)" stroke-linecap="butt">
        <rect fill="none" width="86" x="30" height="30" y="146"/>
      </g>
    </g>
    <g id="y.node.7">
      <g fill="white" transform="matrix(0.9602,0,0,0.9602,9.6016,12.4821)" stroke="white">
        <rect width="109" x="96.75" height="30" y="216" stroke="none"/>
      </g>
      <g id="bla">
        <g font-family="sans-serif" transform="matrix(0.9602,0,0,0.9602,9.6016,12.4821)">
          <text xml:space="preserve" x="103.75" y="235.1543" stroke="none">Proj Is Arg 0 60</text>
        </g>
      </g>
      <g stroke-miterlimit="1.45" transform="matrix(0.9602,0,0,0.9602,9.6016,12.4821)" stroke-linecap="butt">
        <rect fill="none" width="109" x="96.75" height="30" y="216"/>
      </g>
    </g>
    <g id="y.node.8">
      <g fill="white" transform="matrix(0.9602,0,0,0.9602,9.6016,12.4821)" stroke="white">
        <rect width="109" x="225.75" height="30" y="216" stroke="none"/>
      </g>
      <g id="bla">
        <g font-family="sans-serif" transform="matrix(0.9602,0,0,0.9602,9.6016,12.4821)">
          <text xml:space="preserve" x="232.75" y="235.1543" stroke="none">Proj Is Arg 1 61</text>
        </g>
      </g>
      <g stroke-miterlimit="1.45" transform="matrix(0.9602,0,0,0.9602,9.6016,12.4821)" stroke-linecap="butt">
        <rect fill="none" width="109" x="225.75" height="30" y="216"/>
      </g>
    </g>
    <g id="y.node.9">
      <g fill="white" transform="matrix(0.9602,0,0,0.9602,9.6016,12.4821)" stroke="white">
        <rect width="114" x="157.3333" height="30" y="146" stroke="none"/>
      </g>
      <g id="bla">
        <g font-family="sans-serif" transform="matrix(0.9602,0,0,0.9602,9.6016,12.4821)">
          <text xml:space="preserve" x="164.3333" y="165.1543" stroke="none">Proj T T_args 56</text>
        </g>
      </g>
      <g stroke-miterlimit="1.45" transform="matrix(0.9602,0,0,0.9602,9.6016,12.4821)" stroke-linecap="butt">
        <rect fill="none" width="114" x="157.3333" height="30" y="146"/>
      </g>
    </g>
    <g id="y.node.10">
      <g fill="rgb(255,153,153)" transform="matrix(0.9602,0,0,0.9602,9.6016,12.4821)" stroke="rgb(255,153,153)">
        <rect width="154" x="297.0833" height="30" y="146" stroke="none"/>
      </g>
      <g id="bla">
        <g font-family="sans-serif" transform="matrix(0.9602,0,0,0.9602,9.6016,12.4821)">
          <text xml:space="preserve" x="304.0833" y="165.1543" stroke="none">Proj X X_initial_exec 54</text>
        </g>
      </g>
      <g stroke-miterlimit="1.45" transform="matrix(0.9602,0,0,0.9602,9.6016,12.4821)" stroke-linecap="butt">
        <rect fill="none" width="154" x="297.0833" height="30" y="146"/>
      </g>
    </g>
    <g id="y.node.11">
      <g fill="rgb(255,153,255)" transform="matrix(0.9602,0,0,0.9602,9.6016,12.4821)" stroke="rgb(255,153,255)">
        <rect width="69" x="181.25" height="30" y="76" stroke="none"/>
      </g>
      <g id="bla">
        <g font-family="sans-serif" transform="matrix(0.9602,0,0,0.9602,9.6016,12.4821)">
          <text xml:space="preserve" x="188.25" y="95.1543" stroke="none">Start  53</text>
        </g>
      </g>
      <g stroke-miterlimit="1.45" transform="matrix(0.9602,0,0,0.9602,9.6016,12.4821)" stroke-linecap="butt">
        <rect fill="none" width="69" x="181.25" height="30" y="76"/>
      </g>
    </g>
    <g id="y.node.2">
      <g fill="rgb(222,239,234)" transform="matrix(0.9602,0,0,0.9602,9.6016,12.4821)" stroke="rgb(222,239,234)">
        <rect width="129.25" x="137.5" height="183" y="311" stroke="none"/>
      </g>
      <g id="bla">
        <g fill="rgb(64,64,64)" transform="matrix(0.9602,0,0,0.9602,9.6016,12.4821)" stroke="rgb(64,64,64)">
          <rect width="129.25" x="137.5" height="22.625" y="311" stroke="none"/>
        </g>
        <g fill="white" font-size="16" font-family="sans-serif" transform="matrix(0.9602,0,0,0.9602,9.6016,12.4821)" stroke="white">
          <text xml:space="preserve" x="192.75" y="327.8516" stroke="none">Block  59</text>
        </g>
      </g>
      <g fill="white" transform="matrix(0.9602,0,0,0.9602,9.6016,12.4821)" stroke="white">
        <rect width="1" x="137.5" height="183" y="311" stroke="none"/>
        <rect width="127.25" x="138.5" height="1" y="311" stroke="none"/>
        <rect x="138.5" y="493" fill="rgb(155,167,163)" width="128.25" height="1" stroke="none"/>
        <rect x="265.75" y="311" fill="rgb(155,167,163)" width="1" height="182" stroke="none"/>
      </g>
    </g>
    <g id="y.node.4">
      <g fill="rgb(255,153,153)" transform="matrix(0.9602,0,0,0.9602,9.6016,12.4821)" stroke="rgb(255,153,153)">
        <rect width="80" x="152.5" height="30" y="449" stroke="none"/>
      </g>
      <g id="bla">
        <g font-family="sans-serif" transform="matrix(0.9602,0,0,0.9602,9.6016,12.4821)">
          <text xml:space="preserve" x="159.5" y="468.1543" stroke="none">Return  63</text>
        </g>
      </g>
      <g stroke-miterlimit="1.45" transform="matrix(0.9602,0,0,0.9602,9.6016,12.4821)" stroke-linecap="butt">
        <rect fill="none" width="80" x="152.5" height="30" y="449"/>
      </g>
    </g>
    <g id="y.node.5">
      <g fill="white" transform="matrix(0.9602,0,0,0.9602,9.6016,12.4821)" stroke="white">
        <rect width="72" x="179.75" height="30" y="379" stroke="none"/>
      </g>
      <g id="bla">
        <g font-family="sans-serif" transform="matrix(0.9602,0,0,0.9602,9.6016,12.4821)">
          <text xml:space="preserve" x="186.75" y="398.1543" stroke="none">Add Is 62</text>
        </g>
      </g>
      <g stroke-miterlimit="1.45" transform="matrix(0.9602,0,0,0.9602,9.6016,12.4821)" stroke-linecap="butt">
        <rect fill="none" width="72" x="179.75" height="30" y="379"/>
      </g>
    </g>
    <g id="y.edge.0">
      <g stroke-miterlimit="1.45" transform="matrix(0.9602,0,0,0.9602,9.6016,12.4821)" stroke-linecap="butt">
        <path fill="none" d="M197.75 378.9609 L197.75 359 L210.75 359 L210.75 281 L151.25 281 L151.25 254"/>
        <path d="M151.25 246 L146.25 258 L151.25 255 L156.25 258 Z" stroke="none"/>
      </g>
      <g>
        <g stroke-miterlimit="1.45" font-family="sans-serif" transform="matrix(0.9602,0,0,0.9602,9.6016,12.4821)" stroke-linecap="butt">
          <text xml:space="preserve" x="201.75" y="368.5918" stroke="none">0</text>
        </g>
      </g>
    </g>
    <g id="y.edge.1">
      <g stroke-miterlimit="1.45" transform="matrix(0.9602,0,0,0.9602,9.6016,12.4821)" stroke-linecap="butt">
        <path fill="none" d="M233.75 378.9609 L233.75 359 L220.75 359 L220.75 281 L280.25 281 L280.25 254"/>
        <path d="M280.25 246 L275.25 258 L280.25 255 L285.25 258 Z" stroke="none"/>
      </g>
      <g>
        <g stroke-miterlimit="1.45" font-family="sans-serif" transform="matrix(0.9602,0,0,0.9602,9.6016,12.4821)" stroke-linecap="butt">
          <text xml:space="preserve" x="237.75" y="368.5918" stroke="none">1</text>
        </g>
      </g>
    </g>
    <g id="y.edge.2">
      <g fill="red" stroke-miterlimit="1.45" transform="matrix(0.9602,0,0,0.9602,9.6016,12.4821)" stroke-linecap="butt" stroke="red">
        <path fill="none" d="M250.5938 310.9609 L250.5938 291 L374.0833 291 L374.0833 184"/>
        <path d="M374.0833 176 L369.0833 188 L374.0833 185 L379.0833 188 Z" stroke="none"/>
      </g>
      <g>
        <g stroke-miterlimit="1.45" font-family="sans-serif" transform="matrix(0.9602,0,0,0.9602,9.6016,12.4821)" stroke-linecap="butt">
          <text xml:space="preserve" x="254.5938" y="300.5918" stroke="none">0</text>
        </g>
      </g>
    </g>
    <g id="y.edge.3">
      <g fill="red" stroke-miterlimit="1.45" transform="matrix(0.9602,0,0,0.9602,9.6016,12.4821)" stroke-linecap="butt" stroke="red">
        <path fill="none" d="M192.5 533.9731 L192.5 487"/>
        <path d="M192.5 479 L187.5 491 L192.5 488 L197.5 491 Z" stroke="none"/>
      </g>
      <g>
        <g stroke-miterlimit="1.45" font-family="sans-serif" transform="matrix(0.9602,0,0,0.9602,9.6016,12.4821)" stroke-linecap="butt">
          <text xml:space="preserve" x="196.5" y="519.0449" stroke="none">0</text>
        </g>
      </g>
    </g>
    <g id="y.edge.4">
      <g fill="rgb(100,100,255)" stroke-miterlimit="1.45" transform="matrix(0.9602,0,0,0.9602,9.6016,12.4821)" stroke-linecap="butt" stroke="rgb(100,100,255)">
        <path fill="none" d="M172.5 448.9609 L172.5 429 L169.25 429 L169.25 291 L73 291 L73 184"/>
        <path d="M73 176 L68 188 L73 185 L78 188 Z" stroke="none"/>
      </g>
      <g>
        <g stroke-miterlimit="1.45" font-family="sans-serif" transform="matrix(0.9602,0,0,0.9602,9.6016,12.4821)" stroke-linecap="butt">
          <text xml:space="preserve" x="176.5" y="438.5918" stroke="none">0</text>
        </g>
      </g>
    </g>
    <g id="y.edge.5">
      <g stroke-miterlimit="1.45" transform="matrix(0.9602,0,0,0.9602,9.6016,12.4821)" stroke-linecap="butt">
        <path fill="none" d="M212.5 448.9609 L212.5 429 L215.75 429 L215.75 417"/>
        <path d="M215.75 409 L210.75 421 L215.75 418 L220.75 421 Z" stroke="none"/>
      </g>
      <g>
        <g stroke-miterlimit="1.45" font-family="sans-serif" transform="matrix(0.9602,0,0,0.9602,9.6016,12.4821)" stroke-linecap="butt">
          <text xml:space="preserve" x="216.5" y="438.5918" stroke="none">1</text>
        </g>
      </g>
    </g>
    <g id="y.edge.6">
      <g fill="rgb(100,100,255)" stroke-miterlimit="1.45" transform="matrix(0.9602,0,0,0.9602,9.6016,12.4821)" stroke-linecap="butt" stroke="rgb(100,100,255)">
        <path fill="none" d="M73 145.9609 L73 126 L192.75 126 L192.75 114"/>
        <path d="M192.75 106 L187.75 118 L192.75 115 L197.75 118 Z" stroke="none"/>
      </g>
      <g>
        <g stroke-miterlimit="1.45" font-family="sans-serif" transform="matrix(0.9602,0,0,0.9602,9.6016,12.4821)" stroke-linecap="butt">
          <text xml:space="preserve" x="77" y="135.5918" stroke="none">0</text>
        </g>
      </g>
    </g>
    <g id="y.edge.7">
      <g stroke-miterlimit="1.45" transform="matrix(0.9602,0,0,0.9602,9.6016,12.4821)" stroke-linecap="butt">
        <path fill="none" d="M151.25 215.9609 L151.25 196 L185.8333 196 L185.8333 184"/>
        <path d="M185.8333 176 L180.8333 188 L185.8333 185 L190.8333 188 Z" stroke="none"/>
      </g>
      <g>
        <g stroke-miterlimit="1.45" font-family="sans-serif" transform="matrix(0.9602,0,0,0.9602,9.6016,12.4821)" stroke-linecap="butt">
          <text xml:space="preserve" x="155.25" y="205.5918" stroke="none">0</text>
        </g>
      </g>
    </g>
    <g id="y.edge.8">
      <g stroke-miterlimit="1.45" transform="matrix(0.9602,0,0,0.9602,9.6016,12.4821)" stroke-linecap="butt">
        <path fill="none" d="M280.25 215.9609 L280.25 196 L242.8333 196 L242.8333 184"/>
        <path d="M242.8333 176 L237.8333 188 L242.8333 185 L247.8333 188 Z" stroke="none"/>
      </g>
      <g>
        <g stroke-miterlimit="1.45" font-family="sans-serif" transform="matrix(0.9602,0,0,0.9602,9.6016,12.4821)" stroke-linecap="butt">
          <text xml:space="preserve" x="284.25" y="205.5918" stroke="none">0</text>
        </g>
      </g>
    </g>
    <g id="y.edge.9">
      <g stroke-miterlimit="1.45" transform="matrix(0.9602,0,0,0.9602,9.6016,12.4821)" stroke-linecap="butt">
        <path fill="none" d="M214.3333 145.9609 L214.3333 126 L215.75 126 L215.75 114"/>
        <path d="M215.75 106 L210.75 118 L215.75 115 L220.75 118 Z" stroke="none"/>
      </g>
      <g>
        <g stroke-miterlimit="1.45" font-family="sans-serif" transform="matrix(0.9602,0,0,0.9602,9.6016,12.4821)" stroke-linecap="butt">
          <text xml:space="preserve" x="218.3333" y="135.5918" stroke="none">0</text>
        </g>
      </g>
    </g>
    <g id="y.edge.10">
      <g fill="red" stroke-miterlimit="1.45" transform="matrix(0.9602,0,0,0.9602,9.6016,12.4821)" stroke-linecap="butt" stroke="red">
        <path fill="none" d="M374.0833 145.9609 L374.0833 126 L238.75 126 L238.75 114"/>
        <path d="M238.75 106 L233.75 118 L238.75 115 L243.75 118 Z" stroke="none"/>
      </g>
      <g>
        <g stroke-miterlimit="1.45" font-family="sans-serif" transform="matrix(0.9602,0,0,0.9602,9.6016,12.4821)" stroke-linecap="butt">
          <text xml:space="preserve" x="378.0833" y="135.5918" stroke="none">0</text>
        </g>
      </g>
    </g>
  </g>
</svg>
