<?xml version="1.0" encoding="UTF-8"?><svg xmlns="http://www.w3.org/2000/svg" xmlns:xlink="http://www.w3.org/1999/xlink" fill-opacity="1" color-rendering="auto" color-interpolation="auto" stroke="black" text-rendering="auto" stroke-linecap="square" width="360" stroke-miterlimit="10" stroke-opacity="1" shape-rendering="auto" fill="black" stroke-dasharray="none" font-weight="normal" stroke-width="1" height="539" font-family="'Dialog'" font-style="normal" stroke-linejoin="miter" font-size="12" stroke-dashoffset="0" image-rendering="auto">
  <!--Generated by ySVG-->
  <defs id="genericDefs"/>
  <g>
    <defs id="defs1">
      <clipPath clipPathUnits="userSpaceOnUse" id="clipPath1">
        <path d="M0 0 L360 0 L360 539 L0 539 L0 0 Z"/>
      </clipPath>
      <clipPath clipPathUnits="userSpaceOnUse" id="clipPath2">
        <path d="M-10 -14 L370 -14 L370 554.9445 L-10 554.9445 L-10 -14 Z"/>
      </clipPath>
    </defs>
    <g fill="white" transform="scale(0.9474,0.9474) translate(10,14)" stroke="white">
      <rect x="-10" y="-14" clip-path="url(#clipPath2)" width="380" height="569" stroke="none"/>
    </g>
    <g id="y.node.0">
      <g fill="rgb(204,204,204)" transform="matrix(0.9474,0,0,0.9474,9.4737,13.2632)" stroke="rgb(204,204,204)">
        <rect width="359.5" x="0" height="539" y="0" stroke="none"/>
      </g>
      <g id="bla">
        <g fill="rgb(64,64,64)" transform="matrix(0.9474,0,0,0.9474,9.4737,13.2632)" stroke="rgb(64,64,64)">
          <rect width="359.5" x="0" height="22.625" y="0" stroke="none"/>
        </g>
        <g fill="white" font-size="16" font-family="sans-serif" transform="matrix(0.9474,0,0,0.9474,9.4737,13.2632)" stroke="white">
          <text xml:space="preserve" x="325.5" y="16.8516" stroke="none">plus</text>
        </g>
      </g>
      <g fill="white" transform="matrix(0.9474,0,0,0.9474,9.4737,13.2632)" stroke="white">
        <rect width="1" x="0" height="539" y="0" stroke="none"/>
        <rect width="357.5" x="1" height="1" y="0" stroke="none"/>
        <rect x="1" y="538" fill="rgb(142,142,142)" width="358.5" height="1" stroke="none"/>
        <rect x="358.5" y="0" fill="rgb(142,142,142)" width="1" height="538" stroke="none"/>
      </g>
    </g>
    <g id="y.node.2">
      <g fill="rgb(222,239,234)" transform="matrix(0.9474,0,0,0.9474,9.4737,13.2632)" stroke="rgb(222,239,234)">
        <rect width="92" x="152.5" height="83" y="441" stroke="none"/>
      </g>
      <g id="bla">
        <g fill="rgb(64,64,64)" transform="matrix(0.9474,0,0,0.9474,9.4737,13.2632)" stroke="rgb(64,64,64)">
          <rect width="111" x="143" height="22.625" y="441" stroke="none"/>
        </g>
        <g fill="white" font-size="16" font-family="sans-serif" transform="matrix(0.9474,0,0,0.9474,9.4737,13.2632)" stroke="white">
          <text xml:space="preserve" x="145" y="457.8516" stroke="none">End Block  45</text>
        </g>
      </g>
      <g fill="white" transform="matrix(0.9474,0,0,0.9474,9.4737,13.2632)" stroke="white">
        <rect width="1" x="152.5" height="83" y="441" stroke="none"/>
        <rect width="90" x="153.5" height="1" y="441" stroke="none"/>
        <rect x="153.5" y="523" fill="rgb(155,167,163)" width="91" height="1" stroke="none"/>
        <rect x="243.5" y="441" fill="rgb(155,167,163)" width="1" height="82" stroke="none"/>
      </g>
    </g>
    <g id="y.node.10">
      <g fill="rgb(255,153,255)" transform="matrix(0.9474,0,0,0.9474,9.4737,13.2632)" stroke="rgb(255,153,255)">
        <rect width="62" x="167.5" height="30" y="479" stroke="none"/>
      </g>
      <g id="bla">
        <g font-family="sans-serif" transform="matrix(0.9474,0,0,0.9474,9.4737,13.2632)">
          <text xml:space="preserve" x="174.5" y="498.1543" stroke="none">End  46</text>
        </g>
      </g>
      <g stroke-miterlimit="1.45" transform="matrix(0.9474,0,0,0.9474,9.4737,13.2632)" stroke-linecap="butt">
        <rect fill="none" width="62" x="167.5" height="30" y="479"/>
      </g>
    </g>
    <g id="y.node.1">
      <g fill="rgb(222,239,234)" transform="matrix(0.9474,0,0,0.9474,9.4737,13.2632)" stroke="rgb(222,239,234)">
        <rect width="329.5" x="15" height="363" y="38" stroke="none"/>
      </g>
      <g id="bla">
        <g fill="rgb(64,64,64)" transform="matrix(0.9474,0,0,0.9474,9.4737,13.2632)" stroke="rgb(64,64,64)">
          <rect width="329.5" x="15" height="22.625" y="38" stroke="none"/>
        </g>
        <g fill="white" font-size="16" font-family="sans-serif" transform="matrix(0.9474,0,0,0.9474,9.4737,13.2632)" stroke="white">
          <text xml:space="preserve" x="227.5" y="54.8516" stroke="none">Start Block  47</text>
        </g>
      </g>
      <g fill="white" transform="matrix(0.9474,0,0,0.9474,9.4737,13.2632)" stroke="white">
        <rect width="1" x="15" height="363" y="38" stroke="none"/>
        <rect width="327.5" x="16" height="1" y="38" stroke="none"/>
        <rect x="16" y="400" fill="rgb(155,167,163)" width="328.5" height="1" stroke="none"/>
        <rect x="343.5" y="38" fill="rgb(155,167,163)" width="1" height="362" stroke="none"/>
      </g>
    </g>
    <g id="y.node.3">
      <g fill="rgb(255,153,153)" transform="matrix(0.9474,0,0,0.9474,9.4737,13.2632)" stroke="rgb(255,153,153)">
        <rect width="80" x="158.5" height="30" y="356" stroke="none"/>
      </g>
      <g id="bla">
        <g font-family="sans-serif" transform="matrix(0.9474,0,0,0.9474,9.4737,13.2632)">
          <text xml:space="preserve" x="165.5" y="375.1543" stroke="none">Return  57</text>
        </g>
      </g>
      <g stroke-miterlimit="1.45" transform="matrix(0.9474,0,0,0.9474,9.4737,13.2632)" stroke-linecap="butt">
        <rect fill="none" width="80" x="158.5" height="30" y="356"/>
      </g>
    </g>
    <g id="y.node.4">
      <g fill="rgb(153,153,255)" transform="matrix(0.9474,0,0,0.9474,9.4737,13.2632)" stroke="rgb(153,153,255)">
        <rect width="86" x="243.5" height="30" y="286" stroke="none"/>
      </g>
      <g id="bla">
        <g font-family="sans-serif" transform="matrix(0.9474,0,0,0.9474,9.4737,13.2632)">
          <text xml:space="preserve" x="250.5" y="305.1543" stroke="none">Proj M M 52</text>
        </g>
      </g>
      <g stroke-miterlimit="1.45" transform="matrix(0.9474,0,0,0.9474,9.4737,13.2632)" stroke-linecap="butt">
        <rect fill="none" width="86" x="243.5" height="30" y="286"/>
      </g>
    </g>
    <g id="y.node.5">
      <g fill="white" transform="matrix(0.9474,0,0,0.9474,9.4737,13.2632)" stroke="white">
        <rect width="72" x="113" height="30" y="286" stroke="none"/>
      </g>
      <g id="bla">
        <g font-family="sans-serif" transform="matrix(0.9474,0,0,0.9474,9.4737,13.2632)">
          <text xml:space="preserve" x="120" y="305.1543" stroke="none">Add Is 56</text>
        </g>
      </g>
      <g stroke-miterlimit="1.45" transform="matrix(0.9474,0,0,0.9474,9.4737,13.2632)" stroke-linecap="butt">
        <rect fill="none" width="72" x="113" height="30" y="286"/>
      </g>
    </g>
    <g id="y.node.6">
      <g fill="white" transform="matrix(0.9474,0,0,0.9474,9.4737,13.2632)" stroke="white">
        <rect width="109" x="30" height="30" y="216" stroke="none"/>
      </g>
      <g id="bla">
        <g font-family="sans-serif" transform="matrix(0.9474,0,0,0.9474,9.4737,13.2632)">
          <text xml:space="preserve" x="37" y="235.1543" stroke="none">Proj Is Arg 0 54</text>
        </g>
      </g>
      <g stroke-miterlimit="1.45" transform="matrix(0.9474,0,0,0.9474,9.4737,13.2632)" stroke-linecap="butt">
        <rect fill="none" width="109" x="30" height="30" y="216"/>
      </g>
    </g>
    <g id="y.node.7">
      <g fill="white" transform="matrix(0.9474,0,0,0.9474,9.4737,13.2632)" stroke="white">
        <rect width="109" x="159" height="30" y="216" stroke="none"/>
      </g>
      <g id="bla">
        <g font-family="sans-serif" transform="matrix(0.9474,0,0,0.9474,9.4737,13.2632)">
          <text xml:space="preserve" x="166" y="235.1543" stroke="none">Proj Is Arg 1 55</text>
        </g>
      </g>
      <g stroke-miterlimit="1.45" transform="matrix(0.9474,0,0,0.9474,9.4737,13.2632)" stroke-linecap="butt">
        <rect fill="none" width="109" x="159" height="30" y="216"/>
      </g>
    </g>
    <g id="y.node.8">
      <g fill="white" transform="matrix(0.9474,0,0,0.9474,9.4737,13.2632)" stroke="white">
        <rect width="114" x="92" height="30" y="146" stroke="none"/>
      </g>
      <g id="bla">
        <g font-family="sans-serif" transform="matrix(0.9474,0,0,0.9474,9.4737,13.2632)">
          <text xml:space="preserve" x="99" y="165.1543" stroke="none">Proj T T_args 51</text>
        </g>
      </g>
      <g stroke-miterlimit="1.45" transform="matrix(0.9474,0,0,0.9474,9.4737,13.2632)" stroke-linecap="butt">
        <rect fill="none" width="114" x="92" height="30" y="146"/>
      </g>
    </g>
    <g id="y.node.9">
      <g fill="rgb(255,153,255)" transform="matrix(0.9474,0,0,0.9474,9.4737,13.2632)" stroke="rgb(255,153,255)">
        <rect width="69" x="169.25" height="30" y="76" stroke="none"/>
      </g>
      <g id="bla">
        <g font-family="sans-serif" transform="matrix(0.9474,0,0,0.9474,9.4737,13.2632)">
          <text xml:space="preserve" x="176.25" y="95.1543" stroke="none">Start  49</text>
        </g>
      </g>
      <g stroke-miterlimit="1.45" transform="matrix(0.9474,0,0,0.9474,9.4737,13.2632)" stroke-linecap="butt">
        <rect fill="none" width="69" x="169.25" height="30" y="76"/>
      </g>
    </g>
    <g id="y.edge.0">
      <g fill="red" stroke-miterlimit="1.45" transform="matrix(0.9474,0,0,0.9474,9.4737,13.2632)" stroke-linecap="butt" stroke="red">
        <path fill="none" d="M198.5 440.9731 L198.5 394"/>
        <path d="M198.5 386 L193.5 398 L198.5 395 L203.5 398 Z" stroke="none"/>
      </g>
      <g>
        <g stroke-miterlimit="1.45" font-family="sans-serif" transform="matrix(0.9474,0,0,0.9474,9.4737,13.2632)" stroke-linecap="butt">
          <text xml:space="preserve" x="202.5" y="426.0449" stroke="none">0</text>
        </g>
      </g>
    </g>
    <g id="y.edge.1">
      <g fill="rgb(100,100,255)" stroke-miterlimit="1.45" transform="matrix(0.9474,0,0,0.9474,9.4737,13.2632)" stroke-linecap="butt" stroke="rgb(100,100,255)">
        <path fill="none" d="M218.5 355.9609 L218.5 336 L286.5 336 L286.5 324"/>
        <path d="M286.5 316 L281.5 328 L286.5 325 L291.5 328 Z" stroke="none"/>
      </g>
      <g>
        <g stroke-miterlimit="1.45" font-family="sans-serif" transform="matrix(0.9474,0,0,0.9474,9.4737,13.2632)" stroke-linecap="butt">
          <text xml:space="preserve" x="222.5" y="345.5918" stroke="none">0</text>
        </g>
      </g>
    </g>
    <g id="y.edge.2">
      <g stroke-miterlimit="1.45" transform="matrix(0.9474,0,0,0.9474,9.4737,13.2632)" stroke-linecap="butt">
        <path fill="none" d="M178.5 355.9609 L178.5 336 L149 336 L149 324"/>
        <path d="M149 316 L144 328 L149 325 L154 328 Z" stroke="none"/>
      </g>
      <g>
        <g stroke-miterlimit="1.45" font-family="sans-serif" transform="matrix(0.9474,0,0,0.9474,9.4737,13.2632)" stroke-linecap="butt">
          <text xml:space="preserve" x="182.5" y="345.5918" stroke="none">1</text>
        </g>
      </g>
    </g>
    <g id="y.edge.3">
      <g fill="rgb(100,100,255)" stroke-miterlimit="1.45" transform="matrix(0.9474,0,0,0.9474,9.4737,13.2632)" stroke-linecap="butt" stroke="rgb(100,100,255)">
        <path fill="none" d="M286.5 285.9609 L286.5 126 L221 126 L221 114"/>
        <path d="M221 106 L216 118 L221 115 L226 118 Z" stroke="none"/>
      </g>
      <g>
        <g stroke-miterlimit="1.45" font-family="sans-serif" transform="matrix(0.9474,0,0,0.9474,9.4737,13.2632)" stroke-linecap="butt">
          <text xml:space="preserve" x="290.5" y="271.0449" stroke="none">0</text>
        </g>
      </g>
    </g>
    <g id="y.edge.4">
      <g stroke-miterlimit="1.45" transform="matrix(0.9474,0,0,0.9474,9.4737,13.2632)" stroke-linecap="butt">
        <path fill="none" d="M131 285.9609 L131 266 L84.5 266 L84.5 254"/>
        <path d="M84.5 246 L79.5 258 L84.5 255 L89.5 258 Z" stroke="none"/>
      </g>
      <g>
        <g stroke-miterlimit="1.45" font-family="sans-serif" transform="matrix(0.9474,0,0,0.9474,9.4737,13.2632)" stroke-linecap="butt">
          <text xml:space="preserve" x="135" y="275.5918" stroke="none">0</text>
        </g>
      </g>
    </g>
    <g id="y.edge.5">
      <g stroke-miterlimit="1.45" transform="matrix(0.9474,0,0,0.9474,9.4737,13.2632)" stroke-linecap="butt">
        <path fill="none" d="M167 285.9609 L167 266 L213.5 266 L213.5 254"/>
        <path d="M213.5 246 L208.5 258 L213.5 255 L218.5 258 Z" stroke="none"/>
      </g>
      <g>
        <g stroke-miterlimit="1.45" font-family="sans-serif" transform="matrix(0.9474,0,0,0.9474,9.4737,13.2632)" stroke-linecap="butt">
          <text xml:space="preserve" x="171" y="275.5918" stroke="none">1</text>
        </g>
      </g>
    </g>
    <g id="y.edge.6">
      <g stroke-miterlimit="1.45" transform="matrix(0.9474,0,0,0.9474,9.4737,13.2632)" stroke-linecap="butt">
        <path fill="none" d="M84.5 215.9609 L84.5 196 L120.5 196 L120.5 184"/>
        <path d="M120.5 176 L115.5 188 L120.5 185 L125.5 188 Z" stroke="none"/>
      </g>
      <g>
        <g stroke-miterlimit="1.45" font-family="sans-serif" transform="matrix(0.9474,0,0,0.9474,9.4737,13.2632)" stroke-linecap="butt">
          <text xml:space="preserve" x="88.5" y="205.5918" stroke="none">0</text>
        </g>
      </g>
    </g>
    <g id="y.edge.7">
      <g stroke-miterlimit="1.45" transform="matrix(0.9474,0,0,0.9474,9.4737,13.2632)" stroke-linecap="butt">
        <path fill="none" d="M213.5 215.9609 L213.5 196 L177.5 196 L177.5 184"/>
        <path d="M177.5 176 L172.5 188 L177.5 185 L182.5 188 Z" stroke="none"/>
      </g>
      <g>
        <g stroke-miterlimit="1.45" font-family="sans-serif" transform="matrix(0.9474,0,0,0.9474,9.4737,13.2632)" stroke-linecap="butt">
          <text xml:space="preserve" x="217.5" y="205.5918" stroke="none">0</text>
        </g>
      </g>
    </g>
    <g id="y.edge.8">
      <g stroke-miterlimit="1.45" transform="matrix(0.9474,0,0,0.9474,9.4737,13.2632)" stroke-linecap="butt">
        <path fill="none" d="M149 145.9609 L149 126 L186.5 126 L186.5 114"/>
        <path d="M186.5 106 L181.5 118 L186.5 115 L191.5 118 Z" stroke="none"/>
      </g>
      <g>
        <g stroke-miterlimit="1.45" font-family="sans-serif" transform="matrix(0.9474,0,0,0.9474,9.4737,13.2632)" stroke-linecap="butt">
          <text xml:space="preserve" x="153" y="135.5918" stroke="none">0</text>
        </g>
      </g>
    </g>
  </g>
</svg>
